<?xml version="1.0" encoding="UTF-8" standalone="no"?><!DOCTYPE svg PUBLIC "-//W3C//DTD SVG 1.1//EN" "http://www.w3.org/Graphics/SVG/1.1/DTD/svg11.dtd"><!-- Generated by graphviz version 2.40.1 (20161225.0304)
 --><!-- Title: G Pages: 1 --><svg xmlns="http://www.w3.org/2000/svg" xmlns:xlink="http://www.w3.org/1999/xlink" width="362pt" height="404pt" viewBox="0.00 0.00 362.31 404.00">
<g id="graph0" class="graph" transform="scale(1 1) rotate(0) translate(4 400)">
<title>G</title>
<polygon fill="#ffffff" stroke="transparent" points="-4,4 -4,-400 358.3123,-400 358.3123,4 -4,4"/>
<!-- scrypto -->
<g id="node1" class="node">
<title>scrypto</title>
<ellipse fill="none" stroke="#000000" cx="238.4763" cy="-306" rx="39.4254" ry="18"/>
<text text-anchor="middle" x="238.4763" y="-301.8" font-family="Times,serif" font-size="14.00" fill="#000000">scrypto</text>
</g>
<!-- sbor -->
<g id="node2" class="node">
<title>sbor</title>
<ellipse fill="none" stroke="#000000" cx="227.4763" cy="-90" rx="27.8286" ry="18"/>
<text text-anchor="middle" x="227.4763" y="-85.8" font-family="Times,serif" font-size="14.00" fill="#000000">sbor</text>
</g>
<!-- scrypto&#45;&gt;sbor -->
<g id="edge1" class="edge">
<title>scrypto-&gt;sbor</title>
<path fill="none" stroke="#000000" d="M254.0439,-288.9585C279.5239,-258.8919 324.878,-194.8032 299.4763,-144 291.0856,-127.2186 274.7254,-114.2993 259.718,-105.3112"/>
<polygon fill="#000000" stroke="#000000" points="261.0672,-102.0553 250.632,-100.2234 257.6472,-108.163 261.0672,-102.0553"/>
</g>
<!-- scrypto&#45;abi -->
<g id="node3" class="node">
<title>scrypto-abi</title>
<ellipse fill="none" stroke="#000000" cx="54.4763" cy="-162" rx="54.4527" ry="18"/>
<text text-anchor="middle" x="54.4763" y="-157.8" font-family="Times,serif" font-size="14.00" fill="#000000">scrypto-abi</text>
</g>
<!-- scrypto&#45;&gt;scrypto&#45;abi -->
<g id="edge2" class="edge">
<title>scrypto-&gt;scrypto-abi</title>
<path fill="none" stroke="#000000" d="M201.7047,-299.1241C156.8739,-289.9694 84.911,-272.5242 67.4763,-252 53.1608,-235.1477 50.6185,-209.7952 51.2519,-190.2884"/>
<polygon fill="#000000" stroke="#000000" points="54.7552,-190.3399 51.8758,-180.1438 47.7684,-189.9101 54.7552,-190.3399"/>
</g>
<!-- scrypto&#45;types -->
<g id="node4" class="node">
<title>scrypto-types</title>
<ellipse fill="none" stroke="#000000" cx="227.4763" cy="-162" rx="63.1209" ry="18"/>
<text text-anchor="middle" x="227.4763" y="-157.8" font-family="Times,serif" font-size="14.00" fill="#000000">scrypto-types</text>
</g>
<!-- scrypto&#45;&gt;scrypto&#45;types -->
<g id="edge3" class="edge">
<title>scrypto-&gt;scrypto-types</title>
<path fill="none" stroke="#000000" d="M237.0832,-287.7623C235.207,-263.201 231.8494,-219.2474 229.6423,-190.3541"/>
<polygon fill="#000000" stroke="#000000" points="233.1098,-189.794 228.8582,-180.0896 226.1301,-190.3272 233.1098,-189.794"/>
</g>
<!-- scrypto&#45;derive -->
<g id="node5" class="node">
<title>scrypto-derive</title>
<ellipse fill="none" stroke="#000000" cx="143.4763" cy="-234" rx="66.6132" ry="18"/>
<text text-anchor="middle" x="143.4763" y="-229.8" font-family="Times,serif" font-size="14.00" fill="#000000">scrypto-derive</text>
</g>
<!-- scrypto&#45;&gt;scrypto&#45;derive -->
<g id="edge4" class="edge">
<title>scrypto-&gt;scrypto-derive</title>
<path fill="none" stroke="#000000" d="M217.8628,-290.3771C205.0898,-280.6965 188.4493,-268.0847 174.1467,-257.2449"/>
<polygon fill="#000000" stroke="#000000" points="176.1265,-254.3538 166.0427,-251.1029 171.8983,-259.9326 176.1265,-254.3538"/>
</g>
<!-- sbor&#45;derive -->
<g id="node6" class="node">
<title>sbor-derive</title>
<ellipse fill="none" stroke="#000000" cx="227.4763" cy="-18" rx="55.0149" ry="18"/>
<text text-anchor="middle" x="227.4763" y="-13.8" font-family="Times,serif" font-size="14.00" fill="#000000">sbor-derive</text>
</g>
<!-- sbor&#45;&gt;sbor&#45;derive -->
<g id="edge8" class="edge">
<title>sbor-&gt;sbor-derive</title>
<path fill="none" stroke="#000000" d="M227.4763,-71.8314C227.4763,-64.131 227.4763,-54.9743 227.4763,-46.4166"/>
<polygon fill="#000000" stroke="#000000" points="230.9764,-46.4132 227.4763,-36.4133 223.9764,-46.4133 230.9764,-46.4132"/>
</g>
<!-- scrypto&#45;abi&#45;&gt;sbor -->
<g id="edge11" class="edge">
<title>scrypto-abi-&gt;sbor</title>
<path fill="none" stroke="#000000" d="M88.6556,-147.7751C119.4884,-134.943 164.5276,-116.1983 194.8661,-103.5719"/>
<polygon fill="#000000" stroke="#000000" points="196.2755,-106.7764 204.163,-99.7026 193.5858,-100.3137 196.2755,-106.7764"/>
</g>
<!-- scrypto&#45;types&#45;&gt;sbor -->
<g id="edge7" class="edge">
<title>scrypto-types-&gt;sbor</title>
<path fill="none" stroke="#000000" d="M227.4763,-143.8314C227.4763,-136.131 227.4763,-126.9743 227.4763,-118.4166"/>
<polygon fill="#000000" stroke="#000000" points="230.9764,-118.4132 227.4763,-108.4133 223.9764,-118.4133 230.9764,-118.4132"/>
</g>
<!-- scrypto&#45;derive&#45;&gt;sbor -->
<g id="edge5" class="edge">
<title>scrypto-derive-&gt;sbor</title>
<path fill="none" stroke="#000000" d="M141.9347,-215.7746C141.1751,-196.5949 142.4888,-166.1701 155.4763,-144 164.96,-127.8111 181.3879,-114.9285 196.159,-105.8123"/>
<polygon fill="#000000" stroke="#000000" points="198.1842,-108.6832 205.0651,-100.627 194.6621,-102.6338 198.1842,-108.6832"/>
</g>
<!-- scrypto&#45;derive&#45;&gt;scrypto&#45;abi -->
<g id="edge6" class="edge">
<title>scrypto-derive-&gt;scrypto-abi</title>
<path fill="none" stroke="#000000" d="M121.9319,-216.5708C110.2845,-207.1482 95.7477,-195.3881 83.1545,-185.2003"/>
<polygon fill="#000000" stroke="#000000" points="85.1854,-182.3413 75.2095,-178.7729 80.7827,-187.7835 85.1854,-182.3413"/>
</g>
<!-- radix&#45;engine -->
<g id="node7" class="node">
<title>radix-engine</title>
<ellipse fill="none" stroke="#000000" cx="294.4763" cy="-378" rx="59.6723" ry="18"/>
<text text-anchor="middle" x="294.4763" y="-373.8" font-family="Times,serif" font-size="14.00" fill="#000000">radix-engine</text>
</g>
<!-- radix&#45;engine&#45;&gt;scrypto -->
<g id="edge9" class="edge">
<title>radix-engine-&gt;scrypto</title>
<path fill="none" stroke="#000000" d="M280.6336,-360.2022C273.8198,-351.4416 265.488,-340.7293 258.0361,-331.1482"/>
<polygon fill="#000000" stroke="#000000" points="260.6764,-328.842 251.7742,-323.0972 255.1509,-333.1396 260.6764,-328.842"/>
</g>
<!-- radix&#45;engine&#45;&gt;sbor -->
<g id="edge10" class="edge">
<title>radix-engine-&gt;sbor</title>
<path fill="none" stroke="#000000" d="M302.803,-360.1252C320.668,-318.9336 357.9022,-215.3997 317.4763,-144 305.6719,-123.1511 282.2516,-109.4737 262.2615,-101.1009"/>
<polygon fill="#000000" stroke="#000000" points="263.3779,-97.7796 252.7896,-97.4085 260.8355,-104.3016 263.3779,-97.7796"/>
</g>
</g>
</svg>